<svg xmlns="http://www.w3.org/2000/svg" xmlns:xlink="http://www.w3.org/1999/xlink" width="528" height="264.3333330154419"><g><text style="font-family: sans-serif; fill: rgb(59, 59, 59); font-size: 0.85rem; font-weight: bold; text-anchor: middle;" transform="translate(264, 20)"><tspan x="0" dy="0em">Taux de fécondité -République populaire de Chine</tspan></text></g><g transform="translate(10, 26.25)"><svg><svg xmlns="http://www.w3.org/2000/svg" xmlns:xlink="http://www.w3.org/1999/xlink" width="508" height="194"><g class="x axis" transform="translate(0, 164)" fill="none" font-size="10" font-family="sans-serif" text-anchor="middle"><path class="domain" stroke="#999" d="M0,0.5H498.5" transform="translate(0, 0)"/><g class="tick" opacity="1" transform="translate(16.116666793823242,0)"><line stroke="#999" y2="6" stroke-width="0.5"/><text fill="currentColor" y="9" dy="0.71em">1960</text></g><g class="tick" opacity="1" transform="translate(96.524894774757,0)"><line stroke="#999" y2="6" stroke-width="0.5"/><text fill="currentColor" y="9" dy="0.71em">1970</text></g><g class="tick" opacity="1" transform="translate(176.91111119588217,0)"><line stroke="#999" y2="6" stroke-width="0.5"/><text fill="currentColor" y="9" dy="0.71em">1980</text></g><g class="tick" opacity="1" transform="translate(257.31933917681596,0)"><line stroke="#999" y2="6" stroke-width="0.5"/><text fill="currentColor" y="9" dy="0.71em">1990</text></g><g class="tick" opacity="1" transform="translate(337.7055555979411,0)"><line stroke="#999" y2="6" stroke-width="0.5"/><text fill="currentColor" y="9" dy="0.71em">2000</text></g><g class="tick" opacity="1" transform="translate(418.1137835788748,0)"><line stroke="#999" y2="6" stroke-width="0.5"/><text fill="currentColor" y="9" dy="0.71em">2010</text></g><g class="tick" opacity="1" transform="translate(498.5,0)"><line stroke="#999" y2="6" stroke-width="0.5"/><text fill="currentColor" y="9" dy="0.71em">2020</text></g></g><g class="y axis" transform="translate(498, 0)" fill="none" font-size="10" font-family="sans-serif" text-anchor="end"><g class="tick" opacity="1" transform="translate(0,164.5)"><line stroke="currentColor" x2="-498" class="grid-line" style="stroke: rgb(153, 153, 153); stroke-width: 0.5px; stroke-opacity: 0.5; stroke-dasharray: 2px, 2px;"/><text fill="currentColor" x="-498" dy="-4" style="fill: rgb(43, 41, 41); font-family: Roboto; shape-rendering: crispedges;" transform="translate(5.616666793823242, 0)">0</text></g><g class="tick" opacity="1" transform="translate(0,128.5)"><line stroke="currentColor" x2="-498" class="grid-line" style="stroke: rgb(153, 153, 153); stroke-width: 0.5px; stroke-opacity: 0.5; stroke-dasharray: 2px, 2px;"/><text fill="currentColor" x="-498" dy="-4" style="fill: rgb(43, 41, 41); font-family: Roboto; shape-rendering: crispedges;" transform="translate(5.616666793823242, 0)">2</text></g><g class="tick" opacity="1" transform="translate(0,92.5)"><line stroke="currentColor" x2="-498" class="grid-line" style="stroke: rgb(153, 153, 153); stroke-width: 0.5px; stroke-opacity: 0.5; stroke-dasharray: 2px, 2px;"/><text fill="currentColor" x="-498" dy="-4" style="fill: rgb(43, 41, 41); font-family: Roboto; shape-rendering: crispedges;" transform="translate(5.616666793823242, 0)">4</text></g><g class="tick" opacity="1" transform="translate(0,56.5)"><line stroke="currentColor" x2="-498" class="grid-line" style="stroke: rgb(153, 153, 153); stroke-width: 0.5px; stroke-opacity: 0.5; stroke-dasharray: 2px, 2px;"/><text fill="currentColor" x="-498" dy="-4" style="fill: rgb(43, 41, 41); font-family: Roboto; shape-rendering: crispedges;" transform="translate(5.616666793823242, 0)">6</text></g><g class="tick" opacity="1" transform="translate(0,20.5)"><line stroke="currentColor" x2="-498" class="grid-line" style="stroke: rgb(153, 153, 153); stroke-width: 0.5px; stroke-opacity: 0.5; stroke-dasharray: 2px, 2px;"/><text fill="currentColor" x="-498" dy="-4" style="fill: rgb(43, 41, 41); font-family: Roboto; shape-rendering: crispedges;" transform="translate(5.616666793823242, 0)">8</text></g></g><g class="highlight"/><g class="chart-area"><path class="line" style="stroke: rgb(75, 159, 178); fill: none; stroke-width: 2.5px;" d="M498,140.94199999999998L489.9657806698492,137.072L481.9315613396984,136.028L473.8973420095477,131.366L465.8411111195882,132.10399999999998L457.80689178943743,133.94000000000003L449.77267245928664,132.15800000000002L441.73845312913585,133.148L433.68222223917644,131.636L425.64800290902565,133.97599999999997L417.6137835788748,133.634L409.579564248724,133.148L401.52333335876466,133.38199999999998L393.4891140286138,134.01199999999997L385.454894698463,134.40800000000002L377.42067536831223,134.768L369.3644444783529,135.10999999999999L361.3302251482021,135.74L353.2960058180513,135.81199999999998L345.2617864879005,135.866L337.2055555979411,134.696L329.1713362677903,136.45999999999998L321.1371169376395,136.604L313.1028976074887,136.51399999999998L305.0466667175293,136.028L297.01244738737853,135.416L288.97822805722774,134.696L280.94400872707695,133.56199999999998L272.88777783711754,132.032L264.85355850696675,129.188L256.81933917681596,118.748L248.78511984666514,118.64L240.72888895670573,118.298L232.69466962655494,114.32000000000001L224.66045029640415,115.02199999999999L216.62623096625336,116.606L208.57000007629395,117.074L200.53578074614313,117.93799999999999L192.50156141599237,110.50400000000002L184.46734208584158,113.74400000000001L176.41111119588217,114.698L168.37689186573138,114.58999999999999L160.3426725355806,115.11200000000001L152.3084532054298,112.808L144.2522223154704,105.77000000000001L136.2180029853196,99.722L128.1837836551688,88.94L120.14956432501802,78.932L112.09333343505861,71.98400000000001L104.05911410490782,64.58600000000001L96.024894774757,54.47L87.99067544460624,52.85L79.93444455464682,46.855999999999995L71.90022522449603,59.492L63.86600589434523,50.47399999999999L55.831786564194445,45.10999999999999L47.77555567423503,43.90400000000001L39.74133634408423,28.766000000000002L31.707117013933452,54.47L23.67289768378266,94.46600000000001L15.616666793823242,83.882"/></g></svg></svg></g><g transform="translate(10, 250.25)"><text style="fill: rgb(59, 59, 59); font-family: sans-serif; font-size: 0.7rem;"><tspan x="0" dy="0em">Sources des données : datacatalog.worldbank.org par Data Commons</tspan></text></g></svg>